<svg width="48" height="48" viewBox="0 0 48 48" fill="none" xmlns="http://www.w3.org/2000/svg">
<path d="M0 10.6667C0 4.77563 4.77563 0 10.6667 0H37.3333C43.2244 0 48 4.77563 48 10.6667V37.3333C48 43.2244 43.2244 48 37.3333 48H10.6667C4.77563 48 0 43.2244 0 37.3333V10.6667Z" fill="#00C471"/>
<path d="M29.4807 15.3533V20.6261C26.4476 20.6261 23.9993 22.9813 23.9993 25.8989H18.655C18.5792 25.8989 18.5177 25.8391 18.5186 25.7662C18.5927 20.0095 23.4789 15.3533 29.4807 15.3533Z" fill="#FAFAFA"/>
<path d="M40.4437 25.8989H34.9622C34.9622 22.9813 32.5138 20.6261 29.4807 20.6261V15.3533C35.5286 15.3533 40.4437 20.0812 40.4437 25.8989Z" fill="#FAFAFA"/>
<path d="M29.4807 36.4444V31.1717C32.5138 31.1717 34.9622 28.8165 34.9622 25.8989H40.4437C40.4437 31.7341 35.5286 36.4444 29.4807 36.4444Z" fill="#FAFAFA"/>
<path d="M18.5178 36.4444V31.1717C21.5509 31.1717 23.9993 28.8165 23.9993 25.8989H29.3435C29.4193 25.8989 29.4808 25.9586 29.4799 26.0315C29.4061 31.8053 24.5198 36.4444 18.5178 36.4444Z" fill="#FAFAFA"/>
<path d="M7.55481 25.8989H13.0363C13.0363 28.8165 15.4847 31.1717 18.5178 31.1717V36.4444C12.4699 36.4444 7.55481 31.7341 7.55481 25.8989Z" fill="#FAFAFA"/>
<path d="M18.5178 15.3533V20.6261C15.4847 20.6261 13.0363 22.9813 13.0363 25.8989H7.55481C7.55481 20.0812 12.4699 15.3533 18.5178 15.3533Z" fill="#FAFAFA"/>
<path d="M23.7934 8.13209C23.7934 8.05914 23.8549 8 23.9306 8H29.3283C29.404 8 29.4655 8.05914 29.4655 8.1321V14.1644C29.4655 14.2374 29.404 14.2965 29.3282 14.2972C27.4195 14.3167 25.6116 14.7409 23.9928 15.485C23.9008 15.5273 23.7934 15.4632 23.7934 15.3651V8.13209Z" fill="#FAFAFA"/>
<path d="M22.7262 16.2502C22.7641 16.2255 22.7871 16.1843 22.7871 16.1402V15.4854C22.7871 15.4124 22.7256 15.3533 22.6498 15.3533H18.3958V20.6275H18.5603C18.6464 20.6275 18.725 20.5809 18.7649 20.5075C19.6996 18.7891 21.0663 17.3313 22.7262 16.2502Z" fill="#FAFAFA"/>
<path d="M25.2266 35.5475C25.1886 35.5722 25.1657 35.6134 25.1657 35.6575V36.3123C25.1657 36.3853 25.2271 36.4444 25.3029 36.4444H29.557V31.1711H29.3924C29.3064 31.1711 29.2278 31.2177 29.1878 31.2911C28.2531 33.0094 26.8865 34.4665 25.2266 35.5475Z" fill="#FAFAFA"/>
</svg>
