<svg width="100" height="100" viewBox="0 0 100 100" fill="none" xmlns="http://www.w3.org/2000/svg">
<rect width="100" height="100" rx="50" fill="#16DB68"/>
<path d="M64.658 47.1542L67.8567 52.7418C69.5448 56.2328 69.6303 60.47 68.3659 64.0961C67.4897 66.6086 65.8815 68.7815 63.8878 70.5201C62.527 71.7064 60.7524 72.544 59.1959 73.4497L50.039 78.7351L42.0581 83.837C40.2028 84.9563 38.2115 85.9025 36.2654 86.8531L34.7967 87.5457C32.2563 82.8081 31.4173 77.5239 32.8292 72.2917C33.7685 68.8114 35.6335 65.6325 38.2186 63.1265C41.4205 60.0222 45.9502 57.9709 49.8107 55.7422L64.658 47.1542Z" fill="white"/>
<path d="M48.6359 12.563C48.8118 12.5278 48.9628 12.4965 49.1434 12.5003C50.4306 12.5282 51.8059 12.786 53.0866 12.9419L59.3772 13.6622L66.4601 14.4848C67.7064 14.6328 69.0741 14.6967 70.2897 14.9894C70.7678 15.1046 71.1614 15.3537 71.4651 15.741C71.8383 16.2169 71.9616 16.8075 71.8892 17.4018C71.7746 18.3425 71.1865 19.4955 70.8744 20.4046L67.6294 29.6203C66.7332 32.1563 66.0091 35.0339 64.8676 37.45C64.6669 37.8748 64.3798 38.2461 63.9793 38.5017C63.5036 38.8053 62.8399 38.925 62.2922 38.7829C61.0176 38.4526 60.1232 36.5089 59.4601 35.4587L45.3396 44.2933L33.3265 51.787C33.1328 51.9065 33.1466 51.9506 32.9082 51.9069C31.7195 49.9966 30.2892 48.0326 29.3457 45.9982C27.9823 43.0583 27.6548 39.5493 28.3638 36.3905C28.9492 33.7833 30.314 31.3246 32.1633 29.4077C34.2023 27.2938 37.0441 25.8404 39.5205 24.2987L48.8019 18.521C48.5197 17.4799 47.5303 16.5279 47.0859 15.5168C46.8595 15.0017 46.8474 14.3851 47.0762 13.8674C47.3797 13.1804 47.9532 12.802 48.6359 12.563Z" fill="white"/>
</svg>
