<svg width="100" height="100" viewBox="0 0 100 100" fill="none" xmlns="http://www.w3.org/2000/svg">
<rect width="100" height="100" rx="50" fill="#101010"/>
<path d="M20.0451 32.8387C21.363 31.3195 22.8887 29.9367 24.3138 28.5168L31.8705 20.9741L39.4863 13.3513C40.915 11.92 42.412 10.0626 44.137 9L57.0653 12.2507L59.5495 21.8672C59.78 22.8254 60.206 23.7744 60.36 24.747C60.415 25.0955 60.3705 25.337 60.2045 25.6411C59.8055 26.371 59.056 26.9778 58.4682 27.5632L55.1133 30.8964L44.852 41.1601C43.189 42.8288 41.398 44.4527 39.8288 46.2048L47.123 47.8935C48.0838 48.1234 49.2463 48.2379 50.1565 48.6051C50.3806 48.6955 50.5672 48.8668 50.7015 49.0665C51.1945 49.8002 51.25 50.8697 51.4674 51.7102C52.1674 54.4182 52.7586 57.2642 53.6236 59.9122C54.82 58.4427 56.2 57.1577 57.534 55.8177L63.5565 49.7876L69.8925 43.4651C71.0935 42.257 72.267 40.9614 73.533 39.8262C73.752 39.6301 73.977 39.4562 74.277 39.4191C75.3305 39.2888 76.7715 39.8282 77.7955 40.0782L84.3025 41.6598C84.914 41.8095 86.5675 42.022 87.0165 42.3933C87.28 42.6111 87.451 42.8382 87.568 43.1588C88.4145 45.4855 88.832 48.1137 89.45 50.5147L90.2795 53.6742C90.4165 54.1817 90.645 54.7547 90.6885 55.2747C90.7045 55.4617 90.643 55.6187 90.558 55.7807L90.528 55.8387C89.965 56.8872 88.4595 58.0462 87.5965 58.9057L80.474 66.0072L62.833 83.6562L58.1592 88.3322C57.2566 89.2377 56.3385 90.3232 55.2783 91.0382L46.827 88.6322C45.5686 88.2782 44.0601 88.0602 42.8849 87.5232C42.7181 87.4467 42.6048 87.3277 42.5104 87.1732C42.0786 86.4672 41.8793 85.3892 41.6422 84.5912L39.5475 77.1997C39.4389 76.8512 39.2684 75.9927 39.0543 75.7212C38.9174 75.5472 38.5531 75.4197 38.3491 75.3652L38.1052 75.3047L30.5044 73.1897C29.4476 72.8722 28.2078 72.6717 27.3115 72.0072C26.6504 70.5132 26.3063 68.7632 25.8751 67.1882L23.9431 60.4692L16.1021 58.2947C15.0926 58.0392 13.1503 57.7007 12.3772 57.0292C11.9821 56.6857 11.935 56.0932 11.7727 55.6182L10.0905 49.7832C9.81253 48.7178 9.61861 47.1298 9.04689 46.217L9 46.1446V43.8136L20.0451 32.8387ZM9 43.8136V46.1446L9.04689 46.217C9.61861 47.1298 9.81253 48.7178 10.0905 49.7832L11.7727 55.6182C11.935 56.0932 11.9821 56.6857 12.3772 57.0292C13.1503 57.7007 15.0926 58.0392 16.1021 58.2947L23.9431 60.4692L25.8751 67.1882C26.3063 68.7632 26.6504 70.5132 27.3115 72.0072C28.2078 72.6717 29.4476 72.8722 30.5044 73.1897L38.1052 75.3047L38.3243 75.1867C37.9598 74.8017 36.8828 74.7042 36.3713 74.5012C36.0361 74.3682 35.7696 74.4527 35.4613 74.2442C35.2771 74.2547 35.0807 74.2807 34.9102 74.1977C34.6789 74.0857 34.4237 74.0317 34.1759 73.9662C34.0801 73.8032 33.9749 73.6792 33.8417 73.5457L33.3561 73.6847C33.3816 73.4717 33.3245 73.4347 33.2146 73.2567C33.3359 72.9122 33.3629 72.7217 33.2461 72.3697L33.2149 72.2787L33.4972 72.1752L35.5816 72.8107C35.7909 72.8717 36.1238 72.9027 36.3008 73.0267L36.3928 73.1032C36.6013 73.2382 37.0676 73.2282 37.3218 73.2987C37.5532 73.3627 37.8448 73.5622 38.0618 73.5947C38.1666 73.6102 38.4382 73.5142 38.5544 73.4892L38.3449 73.3597C38.5277 72.6977 37.3874 69.2802 37.1523 68.4027L36.0005 63.4992L31.9102 62.5447L32.372 62.3807L30.8292 62.0297C30.6466 61.7447 30.4495 61.4827 30.4079 61.1387L30.632 61.2777L30.8729 61.0367C30.849 60.8412 30.8338 60.7147 30.9079 60.5292C31.1742 60.5362 31.49 60.5757 31.743 60.6637C32.0668 60.7767 32.3843 60.6932 32.6841 60.8827L32.7285 60.9132L32.8664 60.6867C32.1507 60.4302 31.4224 60.3317 30.6889 60.1507C29.3437 59.8192 28.0845 59.4632 26.7036 59.2877L32.616 53.2802L32.6161 52.9287L29.9061 55.6162C29.5058 56.0162 29.1709 56.5037 28.6069 56.6232L28.5667 56.3452C28.3873 56.0807 28.2557 55.8892 27.9473 55.7747L27.8796 55.7507L31.0004 52.5787L30.7425 52.3882C29.9973 52.9537 29.3111 53.7592 28.6564 54.4332L25.3531 57.7972L22.8775 47.8727L22.8098 47.7031L22.5468 47.7777C22.3615 47.6064 22.1362 47.4186 21.9893 47.2131C21.7863 46.9291 21.8707 46.6803 21.9438 46.3736L21.8463 46.2494C20.8239 46.5547 19.4186 45.9016 18.3728 45.6589C16.1428 45.1413 13.9121 44.5511 11.6519 44.1814C12.3332 43.3162 13.2071 42.5197 13.9815 41.7352L18.8946 36.8224C19.7817 35.9426 20.7314 35.1138 21.5414 34.1608L21.5362 33.8359C20.9219 34.2832 20.4908 34.9489 19.8795 35.4203C19.7436 35.183 19.5347 35.0345 19.483 34.7545C19.4457 34.5526 19.3619 34.4218 19.2513 34.2534L19.2016 34.1788C19.4029 33.7291 19.7821 33.4679 20.1565 33.1695L20.0451 32.8387L9 43.8136ZM22.8775 47.8727L25.3531 57.7972L28.6564 54.4332C29.3111 53.7592 29.9973 52.9537 30.7425 52.3882C31.0081 51.8777 31.9737 51.1552 32.4033 50.7137L42.637 40.5337L36.3717 38.7447C35.267 38.4193 34.1579 38.2078 33.0868 37.7676L25.2447 45.6517C24.6641 46.2267 23.6548 47.5695 22.9287 47.855L22.8775 47.8727ZM21.5414 34.1608C20.7314 35.1138 19.7817 35.9426 18.8946 36.8224L13.9815 41.7352C13.2071 42.5197 12.3332 43.3162 11.6519 44.1814C13.9121 44.5511 16.1428 45.1413 18.3728 45.6589C19.4186 45.9016 20.8239 46.5547 21.8463 46.2494C21.945 45.6803 30.4314 37.4985 31.6008 36.3575L28.8895 26.7729C28.059 27.8248 26.9735 28.7713 26.0231 29.7166L21.5414 34.1608ZM63.277 68.1377L53.1249 78.3162L55.6811 88.1722C56.7244 86.7507 58.0668 85.5267 59.3035 84.2747L72.7575 70.9692L63.277 68.1377ZM59.024 57.2767C57.9633 58.5172 56.736 59.6272 55.5798 60.7782L50.5071 65.8887L45.3465 71.0427C44.2322 72.1542 43.1367 73.3307 41.9146 74.3242L46.347 75.3932L51.6817 76.8227L61.7955 66.5952L59.024 57.2767ZM78.251 53.1152L72.659 58.7752L75.1905 68.5687L78.9255 64.6572L87.7655 55.9342L78.251 53.1152ZM48.0049 22.8798L42.5116 28.4197L45.0527 38.2294L48.5348 34.5763L57.4931 25.5818C57.0165 25.2971 56.306 25.2398 55.7674 25.0802L48.0049 22.8798ZM73.874 42.4401L61.552 54.7412C63.0195 55.3392 64.692 55.5242 66.2195 55.9737L71.33 57.2407L76.8465 51.6687C76.0415 49.6379 75.491 47.3433 74.9155 45.2299C74.677 44.3538 74.5205 43.2439 74.0985 42.4472L73.874 42.4401ZM43.6022 12.1082L31.1763 24.4447L35.7623 25.4823L41.0574 26.8596L44.4733 23.4692C45.1303 22.823 46.0401 22.1058 46.5187 21.3281L43.9044 12.1082H43.6022ZM41.5695 59.4397L37.9687 63.0412L40.4833 72.9512L44.1475 69.2057L51.178 62.1547L41.5695 59.4397ZM32.616 53.2802L26.7036 59.2877C28.0845 59.4632 29.3437 59.8192 30.6889 60.1507C31.4224 60.3317 32.1507 60.4302 32.8664 60.6867L36.5002 61.5667L40.1498 58.0697L37.4109 48.4154C36.8754 49.153 36.1617 49.7904 35.521 50.4372L32.616 53.2802ZM45.7133 11.3969C46.4403 13.279 46.8924 15.3662 47.4305 17.317C47.7605 18.5132 48.2304 19.6589 48.4407 20.8885L57.9883 23.6611L56.1501 16.6967C55.9341 15.8326 55.8447 14.4962 55.394 13.7724L45.7133 11.3969ZM76.024 41.7061L78.7995 51.2482L88.3095 53.8677L85.742 44.1126L76.024 41.7061ZM49.0995 51.8487L43.1427 57.8082L47.1507 58.9702C48.6451 59.3562 50.2037 59.7337 51.6252 60.3422L49.4767 51.9007C49.3527 51.8727 49.2273 51.8312 49.0995 51.8487ZM30.8382 26.393L33.1886 34.7366C33.6035 34.4929 33.9583 34.0064 34.2959 33.6547L36.4134 31.5061L39.4543 28.4825L30.8382 26.393ZM41.4877 76.3427L43.8525 84.6827L47.0163 81.4982C48.0262 80.4942 49.0432 79.3117 50.1845 78.4672L41.4877 76.3427ZM39.3418 47.9785L41.7317 56.4452L44.7593 53.3502L47.9897 50.0897L39.3418 47.9785ZM61.084 56.7117C61.5365 58.8877 62.2265 61.0487 62.867 63.1742C63.0415 63.7537 63.115 64.5132 63.399 65.0337L66.5785 61.8522L69.6485 58.8887L61.084 56.7117ZM51.154 80.2147L45.2556 86.2252L49.0424 87.1672L53.6614 88.5327L51.4973 80.1657L51.154 80.2147ZM71.012 60.4047L64.805 66.6632L68.4075 67.5277L73.2675 68.9307C72.505 66.7182 72.101 64.4267 71.4755 62.1757C71.321 61.6197 71.218 60.9312 71.012 60.4047ZM40.5917 30.2232L34.6825 36.2466L38.3757 37.2489C39.9149 37.65 41.5746 38.0201 43.0457 38.6192L40.9191 30.2493L40.5917 30.2232Z" fill="url(#paint0_linear_13_599)"/>
<path d="M9 43.8136L20.0451 32.8387L20.1565 33.1695C19.7821 33.4679 19.4029 33.7291 19.2016 34.1788L19.2513 34.2534C19.3619 34.4218 19.4457 34.5527 19.483 34.7546C19.5347 35.0345 19.7436 35.183 19.8795 35.4203C20.4908 34.9489 20.9219 34.2832 21.5362 33.8359L21.5414 34.1608C20.7314 35.1138 19.7817 35.9426 18.8946 36.8224L13.9815 41.7352C13.2071 42.5197 12.3332 43.3163 11.6519 44.1814C13.9121 44.5511 16.1428 45.1414 18.3728 45.6589C19.4186 45.9016 20.8239 46.5548 21.8463 46.2494L21.9438 46.3736C21.8707 46.6803 21.7863 46.9292 21.9893 47.2131C22.1362 47.4186 22.3615 47.6064 22.5468 47.7777L22.8098 47.7032L22.8775 47.8727L25.3531 57.7972L28.6564 54.4332C29.3111 53.7592 29.9973 52.9537 30.7425 52.3882L31.0004 52.5787L27.8796 55.7507L27.9473 55.7747C28.2557 55.8892 28.3873 56.0807 28.5667 56.3452L28.6069 56.6232C29.1709 56.5037 29.5058 56.0162 29.9061 55.6162L32.6161 52.9287L32.616 53.2802L26.7036 59.2877C28.0845 59.4632 29.3437 59.8192 30.6889 60.1507C31.4224 60.3317 32.1507 60.4302 32.8664 60.6867L32.7285 60.9132L32.6841 60.8827C32.3843 60.6932 32.0668 60.7767 31.743 60.6637C31.49 60.5757 31.1742 60.5362 30.9079 60.5292C30.8338 60.7147 30.849 60.8412 30.8729 61.0367L30.632 61.2777L30.4079 61.1387C30.4495 61.4827 30.6466 61.7447 30.8292 62.0297L32.372 62.3807L31.9102 62.5447L36.0005 63.4992L37.1523 68.4027C37.3874 69.2802 38.5277 72.6977 38.3449 73.3597L38.5544 73.4892C38.4382 73.5142 38.1666 73.6102 38.0618 73.5947C37.8448 73.5622 37.5532 73.3627 37.3218 73.2987C37.0676 73.2282 36.6013 73.2382 36.3928 73.1032L36.3008 73.0267C36.1238 72.9027 35.7909 72.8717 35.5816 72.8107L33.4972 72.1752L33.2149 72.2787L33.2461 72.3697C33.3629 72.7217 33.3359 72.9122 33.2146 73.2567C33.3245 73.4347 33.3816 73.4717 33.3561 73.6847L33.8417 73.5457C33.9749 73.6792 34.0801 73.8032 34.1759 73.9662C34.4237 74.0317 34.6789 74.0857 34.9102 74.1977C35.0807 74.2807 35.2771 74.2547 35.4613 74.2442C35.7696 74.4527 36.0361 74.3682 36.3713 74.5012C36.8828 74.7042 37.9598 74.8017 38.3243 75.1867L38.1052 75.3047L30.5044 73.1897C29.4476 72.8722 28.2078 72.6717 27.3115 72.0072C26.6504 70.5132 26.3063 68.7632 25.8751 67.1882L23.9431 60.4692L16.1021 58.2947C15.0926 58.0392 13.1503 57.7007 12.3772 57.0292C11.9821 56.6857 11.935 56.0932 11.7727 55.6182L10.0905 49.7832C9.81253 48.7178 9.61861 47.1298 9.04689 46.217L9 46.1446V43.8136ZM38.3449 73.3597C38.5277 72.6977 37.3874 69.2802 37.1523 68.4027L36.0005 63.4992L31.9102 62.5447L26.1662 61.0922L28.9314 70.5317L38.3449 73.3597ZM11.0698 46.0157C12.1984 48.732 12.5433 51.7322 13.6351 54.4512L16.7635 51.1087L19.7844 48.1095L11.0698 46.0157ZM20.9531 49.8827C19.9642 51.0327 18.856 52.0777 17.7742 53.1392C16.8597 54.0367 15.9452 55.0017 14.9292 55.7837L18.9902 56.9542L23.3885 58.2917L21.7902 52.0197C21.672 51.5222 21.4962 50.1937 21.1306 49.8686L20.9531 49.8827Z" fill="url(#paint1_linear_13_599)"/>
<defs>
<linearGradient id="paint0_linear_13_599" x1="26.5199" y1="59.008" x2="84.532" y2="36.326" gradientUnits="userSpaceOnUse">
<stop stop-color="#427DE7"/>
<stop offset="1" stop-color="#AD50F1"/>
</linearGradient>
<linearGradient id="paint1_linear_13_599" x1="28.5689" y1="53.1608" x2="12.4729" y2="57.7992" gradientUnits="userSpaceOnUse">
<stop stop-color="#4191F0"/>
<stop offset="1" stop-color="#27B9F7"/>
</linearGradient>
</defs>
</svg>
