<svg width="100" height="100" viewBox="0 0 100 100" fill="none" xmlns="http://www.w3.org/2000/svg">
<rect width="100" height="100" rx="50" fill="#16161A"/>
<path d="M60.1408 22.5518C61.0355 22.4555 61.9998 22.523 62.9025 22.5232L68.1675 22.5248L74.2652 22.5217L76.0955 22.5241C76.3577 22.5272 76.6965 22.5002 76.9468 22.5696C77.2502 22.6537 77.5495 22.9326 77.6888 23.2121C77.8048 23.4447 77.7984 23.7871 77.8072 24.0444L77.8156 26.8113L77.8158 31.8834L77.8145 37.1233L77.8134 39.0139C77.8121 39.4387 77.8527 39.937 77.7095 40.3417C77.575 40.7212 77.2515 40.9143 76.9075 41.074C75.9218 41.1758 74.878 41.1066 73.8846 41.1068L68.1293 41.1077L62.6122 41.1066L61.0536 41.1055C60.7656 41.1052 60.4257 41.1285 60.1464 41.0556C59.8275 40.9723 59.5569 40.7185 59.4124 40.4281C59.3148 40.2323 59.277 40.0394 59.266 39.8223L59.259 37.277L59.2583 32.2626L59.2598 26.6773L59.2654 23.768C59.2717 23.6115 59.2872 23.4454 59.3448 23.2988C59.4883 22.9337 59.8026 22.7139 60.1408 22.5518Z" fill="#FEFEFE"/>
<path d="M23.0998 22.549C23.8703 22.4874 24.6631 22.5246 25.4369 22.5242L29.564 22.5226L35.9597 22.522L39.3921 22.5294C39.5851 22.5351 39.7963 22.529 39.9759 22.6089C40.294 22.7504 40.5067 23.0033 40.6381 23.3224C40.7181 23.5164 40.7292 23.7218 40.7366 23.9288L40.742 26.9665L40.7409 32.7209L40.7422 37.4448L40.736 39.8725C40.727 40.0559 40.6864 40.2488 40.6088 40.4156C40.4451 40.7683 40.1562 40.9482 39.8061 41.0714C39.0887 41.1552 38.3259 41.1062 37.6032 41.1066L33.6664 41.1077L26.357 41.1075L24.2273 41.1066C23.8663 41.1062 23.371 41.1611 23.0304 41.0501C22.7318 40.9528 22.4409 40.6887 22.3079 40.4033C22.1972 40.1658 22.1979 39.8291 22.1906 39.5686L22.1853 36.5316L22.1857 30.6004L22.1846 26.1873L22.1932 23.8757C22.2047 23.6573 22.2285 23.4283 22.3108 23.224C22.4519 22.8752 22.7767 22.694 23.0998 22.549Z" fill="#FEFEFE"/>
<path d="M41.7834 41.1181C42.4582 41.0594 43.1802 41.1047 43.86 41.1045L47.9168 41.1042L54.4798 41.1049L57.9976 41.1133C58.1861 41.1187 58.3855 41.133 58.5573 41.2178C58.8512 41.3631 59.1373 41.6749 59.2259 41.9948C59.2972 42.2532 59.2841 42.5717 59.2848 42.84L59.2861 44.0296L59.2859 47.9492V54.8641L59.2791 58.4191C59.2691 58.6593 59.2387 58.8979 59.1016 59.1023C58.892 59.4153 58.636 59.5889 58.2699 59.6713C57.4834 59.7531 56.6723 59.714 55.8815 59.7146L51.856 59.7164L45.5691 59.7159L42.2941 59.7069C42.0237 59.6966 41.7071 59.6915 41.4546 59.5863C41.188 59.4751 40.8997 59.171 40.8012 58.8942C40.6913 58.5848 40.7414 58.133 40.7412 57.805L40.7399 55.6596L40.739 48.9382L40.7403 44.622L40.7539 42.1925C40.7614 42.0503 40.7994 41.9392 40.8625 41.8111C41.0603 41.4097 41.3803 41.2488 41.7834 41.1181Z" fill="#FEFEFE"/>
<path d="M23.2355 59.7438C23.9621 59.6718 24.7218 59.7137 25.4533 59.7135L29.4598 59.7131L35.9145 59.7142L39.3437 59.7225C39.5726 59.73 39.8573 59.7417 40.0639 59.8458C40.3605 59.9954 40.5826 60.2822 40.6767 60.5995C40.7519 60.8532 40.74 61.143 40.7403 61.4058L40.7414 62.627L40.7435 66.4737L40.7436 73.4782L40.7393 76.9957C40.7303 77.24 40.6785 77.474 40.5521 77.6852C40.3481 78.026 40.0632 78.1991 39.6879 78.2942C38.8863 78.3676 38.0501 78.3211 37.2449 78.3213L32.8296 78.3222L26.684 78.3217L23.3791 78.3076C23.1949 78.2988 23.0599 78.2681 22.8946 78.1868C22.6154 78.0492 22.3583 77.801 22.2705 77.4947C22.1554 77.0937 22.1869 76.6198 22.1867 76.2058L22.1856 74.3237L22.1849 68.7293L22.1856 63.6696C22.1856 62.8107 22.1466 61.9342 22.1935 61.0773C22.2087 60.8012 22.2363 60.534 22.379 60.2914C22.5878 59.9366 22.8635 59.8361 23.2355 59.7438Z" fill="#FEFEFE"/>
<path d="M60.2432 59.7481C60.8641 59.6609 61.5474 59.7123 62.1767 59.7121L65.8491 59.7142L72.7559 59.7143L76.3145 59.7204C76.5708 59.7277 76.8248 59.74 77.0696 59.8241C77.3113 59.9072 77.5925 60.1574 77.6923 60.396C77.8009 60.6557 77.7969 61.0297 77.807 61.3099L77.8158 64.0592L77.816 69.1528L77.8147 74.2108L77.8068 76.9233C77.7989 77.1439 77.7929 77.4299 77.691 77.6266C77.5071 77.9816 77.1759 78.189 76.803 78.2921C76.1216 78.3572 75.4148 78.3211 74.7301 78.3213L71.201 78.3222H63.8834L61.4024 78.3211C61.0392 78.3207 60.4375 78.3802 60.106 78.2471C59.7761 78.1148 59.451 77.8202 59.3282 77.4804C59.2169 77.1726 59.2603 76.7378 59.2601 76.413L59.2588 74.4544L59.2574 68.1118L59.2585 63.5451L59.2667 61.075C59.2786 60.799 59.307 60.5723 59.4429 60.3255C59.6226 59.9992 59.9029 59.8522 60.2432 59.7481Z" fill="#FEFEFE"/>
</svg>
