<svg width="100" height="100" viewBox="0 0 100 100" fill="none" xmlns="http://www.w3.org/2000/svg">
<rect width="100" height="100" rx="50" fill="#3F49E1"/>
<path d="M48.2325 61.3894L29.2672 65.7799C28.5754 65.9532 28.0566 66.6465 28.0566 67.3397V80.3955C28.0566 81.4935 28.9213 82.1865 30.0166 81.9555L56.4758 75.832C57.5711 75.6005 58.0323 74.561 57.5711 73.579L52.7865 63.7002C52.0371 62.1404 52.7865 60.5229 54.4582 60.1762L71.752 56.0168C72.9625 55.728 74 54.457 74 53.1861V41.1122C74 40.0146 73.1355 39.2636 72.04 39.5524L47.0796 45.5027C45.5232 45.8493 44.8314 47.3514 45.5232 48.7956L49.9042 57.8654C50.6536 59.4252 49.9042 60.985 48.2325 61.3894Z" fill="#F6F3F2"/>
<path d="M35.7245 28.7499L40.682 38.9173C41.3161 40.246 40.682 41.6325 39.2408 41.9214L30.0752 44.0588C28.9223 44.3477 28 45.503 28 46.6584V57.577C28 59.4255 29.4988 60.581 31.2858 60.1766L39.8173 58.2124C40.9702 57.9813 41.8926 56.7682 41.8926 55.6128L41.9502 44.4055C41.9502 42.8457 43.2184 41.2859 44.7172 40.9393L72.6751 34.2379C73.3671 34.0646 73.8856 33.3714 73.8856 32.6782V19.6222C73.8856 18.5246 73.0211 17.7736 71.9256 18.0624L36.8198 26.4968C35.7245 26.7279 35.2633 27.7677 35.7245 28.7499Z" fill="#F6F3F2"/>
</svg>
