<svg width="100" height="100" viewBox="0 0 100 100" fill="none" xmlns="http://www.w3.org/2000/svg">
<rect width="100" height="100" rx="50" fill="white"/>
<path d="M74.919 26.7776L82.3092 34.1459L66.5105 50.0008L82.3139 65.8051C81.795 66.5052 80.9868 67.1545 80.3607 67.7773L75.8356 72.2754L74.9044 73.2054C73.6195 72.1682 72.4581 70.8364 71.2852 69.6691L64.034 62.4416L58.1624 56.6099C57.0507 55.5165 55.81 54.4541 54.8224 53.2485C54.0585 52.3158 53.5785 50.8331 53.7006 49.6239C53.8015 48.6217 54.1909 47.5709 54.7989 46.7701C55.1705 46.2806 55.6496 45.8535 56.0833 45.4192L58.2515 43.259L65.5556 36.0276L71.7361 29.8838C72.7798 28.8448 73.7763 27.7045 74.919 26.7776Z" fill="black"/>
<path d="M34.1531 18.1068L34.2022 18.0987C34.3665 18.0858 34.4037 18.1352 34.5141 18.241L50.1717 33.7931C50.8665 33.2333 51.4831 32.5512 52.1148 31.9214L55.3396 28.7076L66.1011 18L73.5531 25.4625L67.1706 31.794L54.3592 44.5469C53.2355 45.6806 51.8728 46.52 50.2181 46.5224C49.1722 46.5239 47.923 46.1297 47.0646 45.5134C46.1687 44.8701 45.3614 43.9021 44.5809 43.1188L40.6931 39.2673L26.8213 25.48L34.1531 18.1068Z" fill="black"/>
<path d="M49.6964 53.508L49.8167 53.4949C50.9751 53.4329 52.2573 53.8006 53.2146 54.4626C54.0023 55.0071 54.6662 55.7749 55.3384 56.4539L58.1408 59.2477L68.765 69.8128L73.5191 74.539C72.972 75.2076 72.3046 75.7948 71.688 76.4007L68.8636 79.2088L66.8774 81.1908C66.6303 81.4367 66.3392 81.814 66.0436 81.9791L50.5242 66.5651C50.4015 66.4439 50.3098 66.3569 50.1488 66.2922C49.5586 66.6934 49.0584 67.2747 48.5544 67.7779L46.0231 70.3034L34.237 81.9981L26.8105 74.563L26.8349 74.4935C26.954 74.2806 27.3355 73.9945 27.517 73.8157L29.7765 71.6056L41.2229 60.2166L45.0688 56.3983C45.6628 55.8096 46.2171 55.1496 46.875 54.6319C47.6847 53.9945 48.6949 53.6853 49.6964 53.508Z" fill="black"/>
<path d="M25.4174 26.869C25.6384 26.9009 26.0405 27.3244 26.2112 27.4887L30.6731 31.9344L39.2865 40.5005L43.3534 44.5391C44.0998 45.2781 44.9353 46.0058 45.5873 46.8289C46.307 47.7375 46.8012 49.2876 46.6661 50.4425C46.5553 51.3882 46.1757 52.4405 45.5962 53.1959C45.1314 53.8018 44.5263 54.3296 43.9863 54.8693L41.1049 57.7296L34.4361 64.3419L28.7122 70.0379C27.6457 71.1063 26.6033 72.3057 25.4153 73.2339L24.4684 72.2775L18.0294 65.8369L33.8555 50.0017L18 34.1714L25.4174 26.869Z" fill="black"/>
</svg>
