<svg width="100" height="100" viewBox="0 0 100 100" fill="none" xmlns="http://www.w3.org/2000/svg">
<rect width="100" height="100" rx="50" fill="#FE8173"/>
<path d="M45.8083 81.3187C44.5927 81.088 43.3017 81.1319 42.068 81.02C38.7641 80.7204 30.6595 79.928 28.3108 77.5333C28.0364 77.2535 27.8941 76.9665 27.9022 76.5708C27.9123 76.0718 28.1429 75.7577 28.4915 75.4293C29.3471 74.6237 30.7026 74.201 31.806 73.8602C34.1849 73.1256 36.6774 72.745 39.1416 72.438C44.0079 71.8318 49.0126 71.6929 53.91 71.8783C58.7174 72.0601 63.7494 72.4626 68.364 73.8767C69.5293 74.2337 71.0778 74.7121 71.9207 75.6479C72.2059 75.9646 72.3427 76.2601 72.3581 76.6854C72.1698 77.3856 71.5802 77.8776 70.9755 78.2259C69.535 79.0553 67.8172 79.4952 66.2059 79.8532C63.4821 80.4582 60.7056 80.8126 57.9275 81.048L55.5731 81.1988C55.2096 81.2226 54.7689 81.2101 54.4232 81.3187H45.8083Z" fill="white"/>
<path d="M48.052 18.5H51.9852C53.053 18.8021 54.3029 18.7791 55.4097 19.0234C59.5264 19.9325 63.6956 21.9457 66.7823 24.8493C71.1375 28.946 73.9379 34.1414 74.1219 40.199C74.3058 46.2565 71.8019 51.9084 67.6912 56.2726C60.9788 63.3993 50.481 66.8621 40.8891 67.1323C36.636 67.2521 32.1522 66.0749 29.0192 63.0962C27.1831 61.3506 26.2447 58.6975 26.1888 56.2032C26.0815 51.411 28.3566 47.1725 31.5794 43.7915C29.9349 43.5117 28.4037 43.1717 27.1782 41.9479C25.9481 40.7195 25.5005 39.1152 25.5 37.4154C25.4987 33.1764 27.5856 29.0188 30.5516 26.0645C34.3224 22.3085 39.2559 20.0675 44.4213 19.0171C45.6244 18.7725 46.8577 18.7491 48.052 18.5ZM63.1127 33.9419C61.6658 34.2116 60.6783 34.8251 59.8351 36.0455C58.9874 37.2726 58.6205 39.1586 58.8998 40.6212C59.2034 42.2115 59.9621 43.6003 61.3342 44.5136C62.1738 45.0725 63.0494 45.1633 64.0304 45.139C65.4527 44.7689 66.5205 44.0742 67.2761 42.7914C68.0963 41.3987 68.3612 39.5188 67.9548 37.9495C67.5934 36.5545 66.7886 35.1978 65.5118 34.4586C64.7663 34.027 63.966 33.8747 63.1127 33.9419ZM49.6519 33.9436C48.2346 34.2128 47.223 34.8397 46.3975 36.0488C45.488 37.3807 45.2052 39.151 45.5114 40.7189C45.8211 42.3057 46.5288 43.5957 47.8968 44.5047C48.7561 45.0755 49.6116 45.1719 50.6189 45.1314C52.0884 44.7496 53.1427 44.0039 53.9176 42.6858C54.7026 41.3506 54.9044 39.3451 54.5113 37.8485C54.1526 36.4825 53.2604 35.1414 52.0205 34.4321C51.2889 34.0135 50.4849 33.8752 49.6519 33.9436Z" fill="white"/>
</svg>
