<svg width="100" height="100" viewBox="0 0 100 100" fill="none" xmlns="http://www.w3.org/2000/svg">
<rect width="100" height="100" rx="50" fill="white"/>
<path d="M43.9374 43.7304L55.6203 43.7003L55.8737 43.432C56.0721 43.6458 56.2263 43.7901 56.4986 43.9001C56.1705 45.379 56.3862 47.3033 56.3862 48.8431L56.3573 56.4294L56.3404 56.7236C54.5455 56.2054 52.7313 56.3836 50.8873 56.3881C49.4679 56.3916 48.0381 56.3026 46.6199 56.376C45.6359 56.4269 44.9423 56.7171 43.9181 56.6093L43.7542 56.2266C43.8305 55.6583 43.7241 55.0898 43.7518 54.5187C43.9201 51.0416 44.0936 47.3446 43.7932 43.8768L43.9374 43.7304Z" fill="black"/>
<path d="M56.357 56.4293C57.4418 56.0733 58.6997 56.2128 59.8284 56.2191C62.2438 56.2326 64.797 56.4025 67.2013 56.1725L67.3057 66.9824C68.7648 66.9884 77.9066 66.7732 78.4411 67.2081C78.7994 67.9311 78.7275 68.7504 78.7263 69.5352L78.7151 72.6415C78.7054 74.5927 78.8095 76.5921 78.6757 78.5372L67.2382 78.5826L67.3033 67.1427L56.2052 67.1073L56.1843 60.4585C56.1827 59.2721 56.0465 57.8695 56.3401 56.7235L56.357 56.4293Z" fill="#21D992"/>
<path d="M21.5815 21.5H33.1142L33.2484 32.8961L43.8677 32.8689L43.9372 43.7304L43.793 43.8768C42.4556 43.7077 41.0643 43.77 39.7156 43.7657L32.9267 43.8047L32.9158 37.4197C32.907 36.0123 32.6897 34.5557 32.9628 33.1684L21.5852 33.0573L21.5815 21.5Z" fill="#21D992"/>
<path d="M43.918 56.6092L43.8923 67.1508L33.2119 67.1869L33.2384 78.5662L21.5712 78.667L21.5186 66.9636L33.0071 66.9331L32.9396 56.2323L43.7541 56.2266L43.918 56.6092Z" fill="#F36D1D"/>
<path d="M67.1916 21.5H78.7597C78.9408 23.1589 78.7319 24.8783 78.7323 26.5469C78.7332 28.5229 78.9396 30.5293 78.7713 32.4969C78.683 32.5849 78.5323 32.7836 78.4299 32.8368C77.8953 33.1144 69.783 32.9843 68.3018 33.0854C68.1082 33.0986 67.3844 33.0809 67.278 33.1539C67.19 33.2143 67.2688 33.3677 67.2651 33.4747L67.229 35.0031L67.2776 43.9056L56.4988 43.9C56.2265 43.79 56.0722 43.6458 55.8738 43.432C56.0939 39.9535 55.6308 36.3878 56.02 32.9209L67.2623 32.8681L67.1916 21.5Z" fill="#F36D1D"/>
</svg>
