<svg width="100" height="100" viewBox="0 0 100 100" fill="none" xmlns="http://www.w3.org/2000/svg">
<g clip-path="url(#clip0_13_554)">
<rect width="100" height="100" rx="50" fill="white"/>
<path d="M64.4316 24.701C67.5218 21.6109 72.5984 21.6109 75.6886 24.701C78.7788 27.7912 78.7788 32.8679 75.6886 35.958C73.8676 37.779 71.4396 38.5516 68.9565 38.2205C68.8461 38.2205 68.7357 38.2205 68.5702 38.2205C67.8529 38.1101 67.0803 38.2205 66.3078 38.5516C65.2593 39.0482 64.542 39.8759 64.1557 40.8692C63.7694 41.8624 63.8246 42.9661 64.2661 43.9593C66.9148 49.6982 65.7008 56.651 61.1759 61.1207C56.651 65.6456 49.7534 66.8596 44.0145 64.2109C42.9661 63.7142 41.8624 63.7142 40.8692 64.1005C39.8759 64.4868 39.0482 65.2041 38.6067 66.1974C38.3308 66.8596 38.1653 67.5218 38.2205 68.2391C38.2205 68.3495 38.2205 68.515 38.2205 68.6254C38.6619 71.1637 37.779 73.7573 36.0132 75.5782C32.9231 78.6684 27.8464 78.6684 24.7562 75.5782C23.2663 74.0883 22.4386 72.1018 22.4386 69.9497C22.4386 67.8529 23.2663 65.8111 24.7562 64.3212C26.5772 62.5003 29.0052 61.7277 31.4883 62.0588C31.5435 62.0588 31.5435 62.0588 31.5987 62.0588C31.8746 62.114 32.1505 62.1692 32.4264 62.1692C33.0334 62.1692 33.5852 62.0588 34.1371 61.7829C35.1855 61.2863 35.9029 60.4586 36.2339 59.5205C36.6202 58.5272 36.6202 57.3684 36.1236 56.32C33.4749 50.5259 34.6889 43.6282 39.2137 39.1586C43.7386 34.6337 50.6363 33.4197 56.3751 36.0684C57.3684 36.565 58.5272 36.565 59.5205 36.1788C60.5137 35.7925 61.3415 35.0751 61.8381 34.0819C62.2243 33.3093 62.2795 32.4264 62.1692 31.5987C61.7829 29.1155 62.6106 26.522 64.4316 24.701ZM56.5407 56.4855C59.9619 53.0643 59.9619 47.4909 56.5407 44.0145C53.1194 40.5933 47.5461 40.5933 44.0697 44.0145C40.6484 47.4357 40.6484 53.0091 44.0697 56.4855C47.5461 59.9067 53.1194 59.9067 56.5407 56.4855ZM50.25 -3C79.6617 -3 103.5 20.8383 103.5 50.25C103.5 79.6617 79.6617 103.5 50.25 103.5C20.8383 103.5 -3 79.6617 -3 50.25C-3 20.8383 20.8383 -3 50.25 -3ZM78.6132 38.9378C83.3036 34.2474 83.3036 26.6324 78.6132 21.8868C73.9228 17.1964 66.3078 17.1964 61.5622 21.8868C59.7964 23.6526 58.7479 25.8047 58.2513 28.0119C49.6982 24.8114 39.9311 26.8531 33.4197 33.3645C26.9083 39.8759 24.8666 49.6982 28.1223 58.2513C25.8598 58.6927 23.7078 59.7964 21.942 61.5622C17.2516 66.2526 17.2516 73.8676 21.942 78.6132C26.6324 83.3036 34.2474 83.3036 38.993 78.6132C40.7588 76.8474 41.8624 74.6402 42.3039 72.3777C44.9526 73.371 47.7117 73.8676 50.4707 73.8676C56.5959 73.8676 62.6106 71.4948 67.0803 67.0251C73.5917 60.5137 75.6334 50.8018 72.4881 42.3039C74.6953 41.7521 76.8474 40.6484 78.6132 38.9378Z" fill="#38A2FF"/>
</g>
<defs>
<clipPath id="clip0_13_554">
<rect width="100" height="100" rx="50" fill="white"/>
</clipPath>
</defs>
</svg>
