<svg width="100" height="100" viewBox="0 0 100 100" fill="none" xmlns="http://www.w3.org/2000/svg">
<g clip-path="url(#clip0_2015_468)">
<rect width="100" height="100" rx="50" fill="white"/>
<rect width="100" height="100" rx="10" fill="url(#paint0_linear_2015_468)"/>
<path d="M51.5182 22.4511C52.6571 23.5655 52.7407 25.4206 52.0104 26.7635C51.9949 26.7932 51.9938 26.8232 52.0072 26.8535C53.1207 29.388 54.0607 31.603 55.3636 33.4401C56.9905 35.7344 58.6608 37.889 60.076 40.4415C60.3279 40.8966 60.3311 41.268 60.2739 41.7601C60.2704 41.7947 60.2792 41.825 60.3004 41.8511C61.0403 42.7644 61.9188 42.7538 63.044 42.6586C64.7227 42.5154 65.8941 42.4554 66.5581 42.4787C70.8556 42.6268 74.4195 45.6048 74.6566 50.0156C74.7772 52.2517 74.4544 54.3269 73.2837 56.2032C72.0333 58.2062 70.3365 59.7593 68.1935 60.8628C67.7214 61.1062 67.2476 61.3471 66.7719 61.5855C64.7566 62.5972 63.8135 65.5974 64.3353 67.6695C64.4807 68.2438 64.9136 69.5158 65.6341 71.4856C65.735 71.76 65.7763 71.9748 65.7579 72.13C65.669 72.8856 64.5036 73.2275 63.8558 73.2867C63.8394 73.2883 63.8239 73.2952 63.8117 73.3065C63.7995 73.3177 63.7912 73.3327 63.7881 73.3491C63.4758 75.1281 62.5581 77.0298 61.0456 78.0849C60.6123 78.3868 59.9878 78.669 59.1721 78.9315C56.9732 79.6384 54.7268 80.0243 52.4327 80.0892C48.7249 80.195 45.2012 79.9495 41.7421 78.724C40.0284 78.1166 38.8154 76.6213 38.2046 74.9535C37.107 71.9554 37.4986 68.7521 38.8524 65.9149C39.3234 64.9286 39.8813 63.8365 40.238 62.9232C41.5706 59.5124 41.8077 55.8191 41.1366 52.2274C40.3565 48.0525 37.0011 44.8227 32.9958 43.6237C29.9517 42.7136 26.7 42.9062 23.6071 43.2099C22.4746 43.3211 22.4576 42.7242 23.1626 42.1136C25.0467 40.4817 27.5172 39.6775 29.9866 39.415C32.9874 39.0944 35.8072 39.4701 38.4386 40.9357C39.4981 41.5262 40.1226 42.2152 41.0255 43.1898C41.1708 43.3465 41.3134 43.4477 41.4531 43.4935C41.463 43.4967 41.4735 43.4974 41.4836 43.4956C41.4938 43.4938 41.5034 43.4896 41.5116 43.4834C41.5197 43.4771 41.5262 43.469 41.5304 43.4597C41.5346 43.4504 41.5364 43.4402 41.5357 43.4301C41.4891 42.7041 41.3956 41.9919 41.2552 41.2934C41.1737 40.886 41.4531 40.5082 41.6447 40.1526C43.0472 37.5525 45.0011 35.1873 46.8058 32.5639C46.9223 32.3945 47.0228 32.2245 47.1075 32.0538C47.9557 30.3429 48.7679 28.6148 49.5441 26.8694C49.5582 26.8362 49.5568 26.8041 49.5399 26.7731C48.8032 25.4153 48.8699 23.575 50.0405 22.4575C50.0521 22.4466 50.0598 22.4323 50.0623 22.4168C50.0648 22.4012 50.062 22.3854 50.0543 22.3718C49.7318 21.7918 49.6496 21.1766 49.8077 20.5262C49.9347 20.0013 50.5073 19.125 51.1149 19.5631C51.9924 20.1949 51.9807 21.5019 51.5055 22.3665C51.4878 22.3975 51.4921 22.4257 51.5182 22.4511ZM72.674 51.53C72.492 48.9817 70.9011 46.59 68.4168 45.7635C65.3631 44.7476 61.488 46.735 59.3509 48.8346C59.3255 48.8593 59.3118 48.8893 59.3097 48.9245C59.2158 50.4273 59.1862 51.9314 59.2207 53.437C59.3065 57.1514 60.3523 60.9612 61.9273 64.319C61.9449 64.3564 61.9636 64.3571 61.9834 64.3211C63.0842 62.3464 64.7016 60.8331 66.5941 59.6373C67.3795 59.142 68.5375 58.6531 69.253 58.2224C69.9848 57.7808 70.6703 57.1158 71.3096 56.2276C72.3406 54.794 72.7954 53.2281 72.674 51.53Z" fill="white"/>
</g>
<defs>
<linearGradient id="paint0_linear_2015_468" x1="0" y1="50" x2="100" y2="50" gradientUnits="userSpaceOnUse">
<stop stop-color="#DF5E00"/>
<stop offset="1" stop-color="#FF9C54"/>
</linearGradient>
<clipPath id="clip0_2015_468">
<rect width="100" height="100" rx="50" fill="white"/>
</clipPath>
</defs>
</svg>
