<svg width="100" height="100" viewBox="0 0 100 100" fill="none" xmlns="http://www.w3.org/2000/svg">
<rect width="100" height="100" rx="50" fill="white"/>
<path d="M55.3008 46.8104L79.2631 33.0078L79.2404 38.366C79.2415 38.9805 79.3515 39.8544 79.2064 40.4308L54.2913 54.8022L54.3066 63.429L79.2594 49.0226L79.2492 56.0378L54.2898 70.4325L54.3253 81.2361C53.543 81.7794 52.7075 82.2116 51.8858 82.6884C51.2475 83.0585 50.6235 83.4783 49.9494 83.7808C49.8759 83.6825 49.8241 83.5806 49.812 83.456C49.7269 82.5609 49.8094 81.5748 49.8124 80.6724L49.8142 75.1442L49.8138 56.8244L49.8241 52.7708C49.8292 51.8347 49.8767 50.8841 49.7554 49.9545C50.284 49.8225 50.9519 49.3231 51.428 49.0466L55.3008 46.8104Z" fill="#F8951E"/>
<path d="M20.4336 33.0424C20.5056 32.9272 20.5571 32.8523 20.6758 32.7799L27.945 28.608L37.8403 22.9073L49.8207 16L53.5463 18.1622C54.3753 18.6301 55.3003 19.0953 56.0654 19.6595L32.6336 33.0939L37.2079 35.7217C37.7208 36.0175 38.2743 36.4394 38.8206 36.6563L45.0817 33.012L55.0804 27.2526L60.008 24.3979C60.6236 24.0421 61.5684 23.3159 62.2582 23.1843L68.1583 26.5984L44.3616 40.2759L51.6238 44.5866C52.8145 45.2971 54.2167 45.9599 55.3007 46.8102L51.4279 49.0465C50.9519 49.3229 50.284 49.8224 49.7553 49.9543L20.4336 33.0424Z" fill="#11A89E"/>
<path d="M20.4335 33.0424L49.7553 49.9543C49.8766 50.8839 49.8291 51.8346 49.824 52.7706L49.8137 56.8243L49.8141 75.144L49.8123 80.6722C49.8093 81.5747 49.7268 82.5608 49.8119 83.4559C49.824 83.5805 49.8758 83.6824 49.9493 83.7807C49.8926 83.792 49.7147 83.8479 49.6683 83.8366C49.3128 83.75 48.6727 83.244 48.3296 83.0416L44.3615 80.7464L28.589 71.6596L20.4025 66.933L20.3711 58.6196L20.3751 43.4742L20.3652 36.1976L20.3638 34.1396C20.3641 33.7767 20.3258 33.3929 20.4335 33.0424ZM25.181 54.9511L25.1857 63.6491C25.8953 63.9652 26.5292 64.3901 27.2065 64.7653L32.3358 67.7313L44.8642 74.9632L44.9972 74.8367L44.9885 74.7418L44.9775 66.3597L25.181 54.9511ZM25.1773 41.3706C25.1923 42.576 25.056 49.7062 25.2511 50.0457L39.347 58.1608L43.2073 60.3825C43.7349 60.6883 44.3312 61.1443 44.8993 61.3437L45.0096 61.2272L44.9972 61.1326C44.8496 59.9331 44.9461 58.6365 44.9453 57.4253C44.945 55.8813 44.8683 54.2905 44.9892 52.7524L25.1773 41.3706Z" fill="#EE1D23"/>
</svg>
