<svg width="100" height="100" viewBox="0 0 100 100" fill="none" xmlns="http://www.w3.org/2000/svg">
<rect width="100" height="100" rx="50" fill="#7BFA91"/>
<path d="M46.8963 43.0602L50.4817 43.0224C52.041 43.0244 53.9809 42.7979 55.329 43.7435C56.1965 44.3518 56.7233 45.3395 56.8944 46.3734C57.0982 47.6063 56.9445 49.0895 56.9438 50.3472C56.9431 51.5565 57.0866 53.0021 56.8886 54.1875C56.7911 54.7736 56.5645 55.3595 56.2153 55.8408C55.4789 56.855 54.5503 57.2635 53.3427 57.4545L49.6223 57.462C48.0286 57.4627 45.9388 57.7544 44.6043 56.7102C43.843 56.1144 43.2159 55.2112 43.0998 54.2343C42.943 52.914 43.0462 51.4762 43.0462 50.1443C43.0461 48.8394 42.8885 47.2794 43.156 46.0066C43.2775 45.4281 43.5637 44.891 43.931 44.4327C44.7045 43.4677 45.7186 43.191 46.8963 43.0602Z" fill="black"/>
<path d="M34.6332 19.0749C36.3632 18.9356 38.1672 19.0335 39.9065 19.0328L49.8215 19.0308L59.2973 19.0327L62.1794 19.0348C62.6781 19.0372 63.319 18.9893 63.7959 19.1277C64.7527 19.4053 65.5552 20.0137 66.031 20.9009C66.2422 21.2949 66.3715 21.7891 66.4261 22.2321C66.5581 23.3002 66.4726 24.4727 66.4749 25.5518L66.4763 28.3189C66.4752 29.1757 66.4998 29.9746 66.2425 30.8022C65.9425 31.7677 65.0736 32.664 64.1131 32.9741C63.25 33.2528 62.371 33.201 61.4786 33.2015L58.1405 33.2027L43.2155 33.202L38.7438 33.2008C37.9716 33.201 37.1306 33.14 36.3655 33.23C35.8034 33.2961 35.3402 33.5168 34.8469 33.7755C34.0912 34.3218 33.5567 35.0029 33.3029 35.9118C33.0891 36.6777 33.1977 37.6798 33.1976 38.473V44.1486C33.1971 45.0626 33.2697 46.0329 33.1709 46.9369C33.1091 47.5027 33.0078 48.057 32.7338 48.5625C32.2934 49.3749 31.5264 50.0187 30.6443 50.2843C29.9886 50.4815 29.2908 50.4605 28.6135 50.4639L26.0645 50.4703C24.9505 50.4707 23.7319 50.5632 22.6301 50.4198C22.1634 50.3589 21.7074 50.2199 21.2959 49.9899C20.492 49.5399 19.9021 48.779 19.6545 47.8872C19.4283 47.0734 19.5176 46.0725 19.5163 45.2291L19.5121 41.083L19.5125 37.1633C19.5133 36.3646 19.4717 35.5283 19.5657 34.735C19.6182 34.2912 19.7902 33.844 20.008 33.4559C20.498 32.5827 21.198 32.0848 22.1394 31.8094C22.7281 31.6372 23.3436 31.6786 23.9512 31.6771L26.914 31.6766C27.6001 31.675 28.3019 31.7099 28.9739 31.5488C29.5122 31.4198 30.0236 31.1209 30.4393 30.7582C31.5845 29.7592 31.6853 28.5249 31.6874 27.0876L31.689 24.1546C31.6897 22.8562 31.6035 21.7295 32.3194 20.5869C32.846 19.7463 33.6944 19.2875 34.6332 19.0749Z" fill="black"/>
<path d="M70.6892 50.5191L74.9961 50.5111C75.9604 50.5117 77.0744 50.4317 78.0075 50.6924C78.4797 50.824 78.9459 51.1333 79.2965 51.4699C80.1674 52.3058 80.4226 53.2487 80.4363 54.4209L80.4488 62.1256C80.4484 63.3955 80.6121 64.9006 80.356 66.1352C80.2071 66.8534 79.8619 67.4787 79.3426 67.9966C78.2021 69.1338 76.5151 69.0598 75.0166 69.0618L72.2664 69.0648C71.0818 69.0691 70.1356 69.2091 69.2597 70.0697C68.2231 71.0879 68.2325 72.1568 68.2305 73.5006L68.2295 76.3546C68.2291 77.9031 68.3444 79.3379 67.129 80.5154C66.6305 80.9987 65.9223 81.3113 65.2379 81.418C64.4601 81.5393 63.6093 81.4753 62.8225 81.4756L58.5126 81.477L43.3158 81.4746L38.8082 81.478C38.0777 81.4773 37.2341 81.5549 36.5184 81.4226C35.8565 81.3003 35.2672 81.0473 34.7592 80.5994C33.9367 79.8738 33.6117 78.9496 33.5515 77.8797C33.4747 76.5122 33.5311 75.1101 33.532 73.7396C33.5326 72.6464 33.4047 71.3535 33.6561 70.2887C33.8045 69.6597 34.1009 69.1105 34.5379 68.6349C35.0307 68.0979 35.76 67.7083 36.4802 67.5873C37.2111 67.4647 38.0521 67.537 38.7965 67.5373L43.24 67.539L56.4084 67.544L63.1193 67.5337C64.7384 67.455 66.0886 66.5871 66.608 65.0213C66.8957 64.1541 66.7989 63.1695 66.8002 62.266L66.7975 56.4203C66.7979 55.4765 66.6947 54.4213 66.8604 53.496C66.978 52.8381 67.2432 52.2065 67.7004 51.7103C68.5706 50.7654 69.4479 50.5697 70.6892 50.5191Z" fill="black"/>
</svg>
