<svg width="100" height="100" viewBox="0 0 100 100" fill="none" xmlns="http://www.w3.org/2000/svg">
<g clip-path="url(#clip0_13_582)">
<rect width="100" height="100" rx="50" fill="white"/>
<g clip-path="url(#clip1_13_582)">
<path d="M0 43.6618V0H46.956H53.8523H101V45.1582V56.5165V101H58.9005H58.5746H42.298H41.8664H0V51.9001V43.6618Z" fill="#FEFEFE"/>
<path d="M41.8663 101L41.8006 100.96C41.319 100.675 40.5759 100.658 40.0218 100.553L37.353 99.9339C35.4276 99.4114 33.5554 98.8103 31.701 98.0732C20.8202 93.7482 11.7605 85.8092 6.0316 75.5974C4.77682 73.3606 3.85162 71.0438 2.80566 68.7137L42.2967 49.3746L42.2979 101H41.8663Z" fill="black"/>
<path d="M0 43.6618V0H46.956H53.8523L53.9102 0.0366506C54.4731 0.375135 55.6402 0.313435 56.3127 0.38564C57.5862 0.522394 58.8677 0.692797 60.1242 0.942007C68.5081 2.60485 75.8523 6.22066 82.5709 11.4539L0 51.9001V43.6618Z" fill="black"/>
<path d="M0 43.6618V0H46.956L46.8712 0.0370573C46.3357 0.262696 45.7481 0.238743 45.1793 0.301973L42.0435 0.69093C39.9774 1.01869 37.8809 1.52218 35.8737 2.11801C21.7452 6.31192 9.67656 16.8799 3.84852 30.4459C2.61268 33.3225 1.62722 36.2776 0.914625 39.3263L0.378733 42.0307C0.290459 42.5549 0.286862 43.2033 0 43.6618Z" fill="#FEFEFE"/>
<path d="M58.5744 101L58.5713 41.3055L93.7278 24.1542L95.9606 28.3017C97.4092 31.1995 98.6526 34.3665 99.4525 37.5094L100.435 42.0455C100.615 43.0814 100.677 44.1577 101 45.1582V56.5165V101H58.9003H58.5744Z" fill="black"/>
<path d="M58.9004 101C59.2348 100.692 62.118 100.274 62.8098 100.1C66.149 99.2579 69.4794 98.089 72.5695 96.5583C85.1312 90.3367 94.513 79.5772 98.847 66.2201C99.4562 64.3433 99.9616 62.3453 100.306 60.4025C100.53 59.1429 100.594 57.7217 101 56.5165V101H58.9004Z" fill="#FEFEFE"/>
</g>
</g>
<defs>
<clipPath id="clip0_13_582">
<rect width="100" height="100" rx="50" fill="white"/>
</clipPath>
<clipPath id="clip1_13_582">
<rect width="101" height="101" fill="white"/>
</clipPath>
</defs>
</svg>
