<svg width="22" height="14" viewBox="0 0 22 14" fill="none" xmlns="http://www.w3.org/2000/svg">
<path fill-rule="evenodd" clip-rule="evenodd" d="M0.332033 6.75095C0.332033 6.94986 0.41105 7.14062 0.551702 7.28128C0.692356 7.42193 0.883121 7.50095 1.08203 7.50095L18.7715 7.50095L14.051 12.2199C13.9102 12.3608 13.8311 12.5518 13.8311 12.7509C13.8311 12.9501 13.9102 13.1411 14.051 13.2819C14.1919 13.4228 14.3829 13.5019 14.582 13.5019C14.7812 13.5019 14.9722 13.4228 15.113 13.2819L21.113 7.28195C21.1829 7.21228 21.2383 7.12951 21.2761 7.0384C21.3139 6.94728 21.3334 6.8496 21.3334 6.75095C21.3334 6.6523 21.3139 6.55462 21.2761 6.4635C21.2383 6.37238 21.1829 6.28962 21.113 6.21995L15.113 0.219947C15.0433 0.150215 14.9605 0.0949009 14.8694 0.0571622C14.7783 0.0194236 14.6806 -2.908e-07 14.582 -2.9511e-07C14.3829 -3.03816e-07 14.1919 0.079117 14.051 0.219947C13.9102 0.360777 13.8311 0.551783 13.8311 0.750947C13.8311 0.950111 13.9102 1.14112 14.051 1.28195L18.7715 6.00095L1.08203 6.00095C0.883121 6.00095 0.692356 6.07996 0.551702 6.22062C0.411051 6.36127 0.332033 6.55203 0.332033 6.75095Z" fill="white"/>
</svg>
