<svg width="11" height="7" viewBox="0 0 11 7"  xmlns="http://www.w3.org/2000/svg">
<path fill-rule="evenodd" clip-rule="evenodd" d="M0.220316 1.22003C0.360942 1.07958 0.551566 1.00069 0.750317 1.00069C0.949067 1.00069 1.13969 1.07958 1.28032 1.22003L5.00032 4.94003L8.72032 1.22003C8.78898 1.14634 8.87178 1.08724 8.96378 1.04625C9.05578 1.00526 9.15509 0.983217 9.25579 0.98144C9.3565 0.979663 9.45653 0.998188 9.54991 1.03591C9.6433 1.07363 9.72814 1.12977 9.79935 1.20099C9.87057 1.27221 9.92672 1.35705 9.96444 1.45043C10.0022 1.54382 10.0207 1.64385 10.0189 1.74455C10.0171 1.84526 9.99509 1.94457 9.9541 2.03657C9.91311 2.12857 9.854 2.21137 9.78032 2.28003L5.53032 6.53003C5.38969 6.67048 5.19907 6.74937 5.00032 6.74937C4.80157 6.74937 4.61094 6.67048 4.47032 6.53003L0.220316 2.28003C0.0798659 2.13941 0.000976563 1.94878 0.000976562 1.75003C0.000976563 1.55128 0.0798659 1.36066 0.220316 1.22003Z" />
</svg>
