<svg width="25" height="24" viewBox="0 0 25 24"  xmlns="http://www.w3.org/2000/svg">
<path d="M20.8169 4.49291C19.2869 3.80293 17.647 3.29294 15.932 3.00295C15.9168 3.00002 15.901 3.00191 15.8868 3.00836C15.8726 3.01481 15.8608 3.0255 15.853 3.03895C15.643 3.40794 15.409 3.88892 15.2451 4.26891C13.4262 3.99716 11.5771 3.99716 9.75821 4.26891C9.57555 3.84779 9.36957 3.43716 9.14123 3.03895C9.13349 3.02533 9.12178 3.0144 9.10767 3.00761C9.09355 3.00082 9.0777 2.9985 9.06223 3.00095C7.34828 3.29094 5.70833 3.80093 4.17737 4.49191C4.1642 4.49743 4.15304 4.50685 4.14538 4.51891C1.03347 9.09377 0.18049 13.5556 0.599478 17.9615C0.600644 17.9723 0.603993 17.9827 0.609322 17.9922C0.614652 18.0017 0.621849 18.0099 0.630477 18.0165C2.44682 19.3389 4.4727 20.3463 6.6233 20.9964C6.6383 21.001 6.65433 21.001 6.66932 20.9964C6.6843 20.9918 6.69754 20.9827 6.7073 20.9704C7.17008 20.3515 7.58017 19.6949 7.93327 19.0075C7.93817 18.9981 7.94099 18.9877 7.94155 18.9772C7.9421 18.9666 7.94038 18.956 7.93649 18.9461C7.93261 18.9363 7.92665 18.9274 7.91901 18.92C7.91138 18.9126 7.90226 18.907 7.89227 18.9035C7.24629 18.6602 6.62039 18.3667 6.02032 18.0255C6.00954 18.0194 6.00045 18.0106 5.99388 18.0001C5.9873 17.9896 5.98345 17.9776 5.98266 17.9652C5.98186 17.9528 5.98416 17.9404 5.98934 17.9291C5.99451 17.9178 6.00241 17.908 6.01232 17.9005C6.13832 17.8075 6.26431 17.7105 6.38431 17.6135C6.39511 17.6048 6.40812 17.5993 6.42189 17.5975C6.43566 17.5957 6.44966 17.5978 6.46231 17.6035C10.3892 19.3675 14.6421 19.3675 18.523 17.6035C18.5356 17.5975 18.5498 17.5951 18.5637 17.5967C18.5777 17.5983 18.591 17.6038 18.602 17.6125C18.722 17.7105 18.847 17.8075 18.9739 17.9005C18.984 17.9078 18.992 17.9175 18.9973 17.9287C19.0027 17.9399 19.0052 17.9522 19.0046 17.9646C19.004 17.977 19.0003 17.9891 18.9939 17.9997C18.9875 18.0103 18.9786 18.0192 18.9679 18.0255C18.37 18.3695 17.748 18.6605 17.095 18.9025C17.085 18.9061 17.0758 18.9119 17.0682 18.9193C17.0606 18.9268 17.0546 18.9358 17.0507 18.9457C17.0469 18.9556 17.0451 18.9663 17.0457 18.9769C17.0463 18.9876 17.0491 18.998 17.054 19.0075C17.414 19.6945 17.826 20.3484 18.279 20.9694C18.2884 20.9822 18.3015 20.9917 18.3165 20.9967C18.3316 21.0017 18.3478 21.002 18.363 20.9974C20.5173 20.3491 22.5464 19.3413 24.3648 18.0165C24.3737 18.0103 24.3811 18.0023 24.3866 17.993C24.3921 17.9837 24.3956 17.9733 24.3968 17.9625C24.8968 12.8687 23.5588 8.44279 20.8479 4.52091C20.8412 4.50816 20.8302 4.49823 20.8169 4.49291ZM8.52025 15.2786C7.33828 15.2786 6.36331 14.2096 6.36331 12.8987C6.36331 11.5867 7.31928 10.5187 8.52025 10.5187C9.73021 10.5187 10.6962 11.5957 10.6772 12.8987C10.6772 14.2106 9.72121 15.2786 8.52025 15.2786ZM16.495 15.2786C15.3121 15.2786 14.3381 14.2096 14.3381 12.8987C14.3381 11.5867 15.2931 10.5187 16.495 10.5187C17.705 10.5187 18.671 11.5957 18.652 12.8987C18.652 14.2106 17.706 15.2786 16.495 15.2786Z" />
</svg>
