<svg width="30" height="34" viewBox="0 0 30 34" xmlns="http://www.w3.org/2000/svg">
<path d="M25.625 0.75C23.9 0.75 22.5 2.15 22.5 3.875V30.125C22.5 31.85 23.9 33.25 25.625 33.25H26.875C28.6 33.25 30 31.85 30 30.125V3.875C30 2.14833 28.6 0.75 26.875 0.75H25.625ZM11.25 11.375C11.25 9.64833 12.65 8.25 14.375 8.25H15.625C17.3517 8.25 18.75 9.65 18.75 11.375V30.125C18.75 31.85 17.35 33.25 15.625 33.25H14.375C13.5462 33.25 12.7513 32.9208 12.1653 32.3347C11.5792 31.7487 11.25 30.9538 11.25 30.125V11.375ZM0 18.875C0 17.1483 1.4 15.75 3.125 15.75H4.375C6.10167 15.75 7.5 17.15 7.5 18.875V30.125C7.5 31.85 6.1 33.25 4.375 33.25H3.125C2.2962 33.25 1.50134 32.9208 0.915291 32.3347C0.32924 31.7487 0 30.9538 0 30.125V18.875Z" />
</svg>
