<svg width="25" height="24" viewBox="0 0 25 24" xmlns="http://www.w3.org/2000/svg">
<g clip-path="url(#clip0_42_10502)">
<path d="M0.500977 6.7923C0.500977 5.70605 1.38155 4.82547 2.4678 4.82547H2.60279C3.68903 4.82547 4.56961 5.70605 4.56961 6.7923C4.56961 7.87854 3.68903 8.75912 2.60279 8.75912H2.4678C1.38155 8.75912 0.500977 7.87854 0.500977 6.7923Z" />
<path d="M5.47558 1.96682C5.47558 0.880576 6.35615 0 7.4424 0H7.57739C8.66364 0 9.54421 0.880576 9.54421 1.96682C9.54421 3.05307 8.66364 3.93364 7.57739 3.93364H7.4424C6.35615 3.93364 5.47558 3.05307 5.47558 1.96682Z" />
<path d="M15.4577 1.96682C15.4577 0.880576 16.3383 0 17.4246 0H17.5595C18.6458 0 19.5264 0.880576 19.5264 1.96682C19.5264 3.05307 18.6458 3.93364 17.5595 3.93364H17.4246C16.3383 3.93364 15.4577 3.05307 15.4577 1.96682Z" />
<path d="M20.4323 6.7923C20.4323 5.70605 21.3129 4.82547 22.3992 4.82547H22.5341C23.6204 4.82547 24.501 5.70605 24.501 6.7923C24.501 7.87854 23.6204 8.75912 22.5341 8.75912H22.3991C21.3129 8.75912 20.4323 7.87854 20.4323 6.7923Z" />
<path d="M15.4577 11.6496C15.4577 10.5634 16.3383 9.6828 17.4246 9.6828H17.5595C18.6458 9.6828 19.5264 10.5634 19.5264 11.6496C19.5264 12.7359 18.6458 13.6164 17.5595 13.6164H17.4246C16.3383 13.6164 15.4577 12.7359 15.4577 11.6496Z" />
<path d="M10.4667 6.7923C10.4667 5.70605 11.3472 4.82547 12.4335 4.82547H12.5685C13.6547 4.82547 14.5353 5.70605 14.5353 6.7923C14.5353 7.87854 13.6547 8.75912 12.5685 8.75912H12.4335C11.3472 8.75912 10.4667 7.87854 10.4667 6.7923Z" />
<path d="M10.4667 16.3955C10.4667 15.3092 11.3472 14.4287 12.4335 14.4287H12.5685C13.6547 14.4287 14.5353 15.3092 14.5353 16.3955C14.5353 17.4817 13.6547 18.3623 12.5685 18.3623H12.4335C11.3472 18.3623 10.4667 17.4817 10.4667 16.3955Z" />
<path d="M5.47558 11.6496C5.47558 10.5634 6.35615 9.6828 7.4424 9.6828H7.57739C8.66364 9.6828 9.54421 10.5634 9.54421 11.6496C9.54421 12.7359 8.66364 13.6164 7.57739 13.6164H7.4424C6.35615 13.6164 5.47558 12.7359 5.47558 11.6496Z" />
<path d="M11.5143 5.07191L9.30442 2.93396V2.89401C9.11337 3.23894 8.81904 3.52237 8.46139 3.70569H8.50633L10.7155 5.84297V5.84896C10.9003 5.52266 11.178 5.25255 11.5143 5.07191Z" />
<path d="M15.7128 2.93396V2.92119C15.9041 3.25383 16.1923 3.52721 16.5405 3.70569H16.5109L14.3018 5.84297V5.87656C14.1184 5.54012 13.8371 5.26132 13.4945 5.0756H13.4992L15.7128 2.93396Z" />
<path d="M11.9448 8.68472V14.5031C12.1215 14.4546 12.3081 14.4287 12.501 14.4287C12.6998 14.4287 12.892 14.4562 13.0736 14.5077V8.68013C12.892 8.73155 12.6998 8.75913 12.501 8.75913C12.3081 8.75913 12.1215 8.73319 11.9448 8.68472Z" />
<path d="M11.4674 14.7011L9.29765 12.603V12.5889C9.10896 12.9239 8.8225 13.2 8.47532 13.3813H8.50633L10.6916 15.4955C10.8677 15.1653 11.1377 14.8895 11.4674 14.7011Z" />
<path d="M5.71246 10.6797V10.7277C5.90215 10.3827 6.19497 10.0988 6.55116 9.91449H6.51619L4.30039 7.77077C4.10501 8.0995 3.81422 8.36849 3.46454 8.5424H3.5022L5.71246 10.6797Z" />
<path d="M11.9448 18.2879V24H13.0736V18.2833C12.892 18.3347 12.6998 18.3623 12.501 18.3623C12.3081 18.3623 12.1215 18.3364 11.9448 18.2879Z" />
<path d="M14.3151 15.5046L16.5154 13.3769H16.5183C16.1813 13.199 15.9021 12.9315 15.7149 12.6076L13.5442 14.7066C13.8725 14.8966 14.1408 15.1736 14.3151 15.5046Z" />
<path d="M19.3025 10.6819V10.7519C19.1119 10.3932 18.8106 10.0986 18.4423 9.91012H18.5044L20.7071 7.78016C20.9025 8.10463 21.191 8.37015 21.5374 8.5424H21.5151L19.3025 10.6819Z" />
</g>
<defs>
<clipPath id="clip0_42_10502">
<rect width="24" height="24" fill="white" transform="translate(0.5)"/>
</clipPath>
</defs>
</svg>
