<svg width="36" height="34" viewBox="0 0 36 34"  xmlns="http://www.w3.org/2000/svg">
<path fill-rule="evenodd" clip-rule="evenodd" d="M1.75 0.75C1.41848 0.75 1.10054 0.881696 0.866117 1.11612C0.631696 1.35054 0.5 1.66848 0.5 2C0.5 2.33152 0.631696 2.64946 0.866117 2.88388C1.10054 3.1183 1.41848 3.25 1.75 3.25H3V20.75C3 22.0761 3.52678 23.3479 4.46447 24.2855C5.40215 25.2232 6.67392 25.75 8 25.75H10.0167L8.06333 31.605C7.95857 31.9197 7.98313 32.2632 8.13159 32.5598C8.28006 32.8564 8.54028 33.0819 8.855 33.1867C9.16972 33.2914 9.51317 33.2669 9.80979 33.1184C10.1064 32.9699 10.3319 32.7097 10.4367 32.395L10.985 30.75H25.015L25.565 32.395C25.6788 32.6976 25.9054 32.9444 26.1973 33.0834C26.4892 33.2225 26.8236 33.2431 27.1303 33.1409C27.437 33.0386 27.6922 32.8215 27.8422 32.5351C27.9923 32.2488 28.0255 31.9154 27.935 31.605L25.985 25.75H28C29.3261 25.75 30.5979 25.2232 31.5355 24.2855C32.4732 23.3479 33 22.0761 33 20.75V3.25H34.25C34.5815 3.25 34.8995 3.1183 35.1339 2.88388C35.3683 2.64946 35.5 2.33152 35.5 2C35.5 1.66848 35.3683 1.35054 35.1339 1.11612C34.8995 0.881696 34.5815 0.75 34.25 0.75H1.75ZM12.65 25.75H23.35L24.1833 28.25H11.8167L12.65 25.75ZM26.125 10.7583C26.2683 10.6769 26.3941 10.5678 26.4951 10.4376C26.5961 10.3073 26.6703 10.1583 26.7135 9.9992C26.7567 9.84011 26.768 9.67404 26.7468 9.51057C26.7255 9.34709 26.6721 9.18944 26.5897 9.04667C26.5073 8.90391 26.3974 8.77886 26.2665 8.67873C26.1355 8.57859 25.9861 8.50535 25.8267 8.46321C25.6673 8.42107 25.5012 8.41088 25.3378 8.43321C25.1745 8.45554 25.0172 8.50996 24.875 8.59333C22.6026 9.90872 20.5923 11.632 18.945 13.6767L16.3833 11.1167C16.149 10.8826 15.8313 10.7511 15.5 10.7511C15.1687 10.7511 14.851 10.8826 14.6167 11.1167L9.61667 16.1167C9.49385 16.2311 9.39535 16.3691 9.32703 16.5224C9.25871 16.6758 9.22198 16.8413 9.21901 17.0091C9.21605 17.177 9.24693 17.3437 9.3098 17.4993C9.37266 17.655 9.46624 17.7964 9.58494 17.9151C9.70363 18.0338 9.84502 18.1273 10.0007 18.1902C10.1563 18.2531 10.323 18.2839 10.4909 18.281C10.6587 18.278 10.8242 18.2413 10.9776 18.173C11.1309 18.1046 11.2689 18.0061 11.3833 17.8833L15.5 13.7667L18.195 16.4633C18.3243 16.5926 18.4804 16.692 18.6522 16.7544C18.8241 16.8168 19.0076 16.8408 19.1897 16.8245C19.3718 16.8083 19.5482 16.7524 19.7063 16.6606C19.8645 16.5688 20.0006 16.4434 20.105 16.2933C21.6825 14.0301 23.7375 12.1407 26.125 10.7583Z" />
</svg>
