<svg width="118" height="40" viewBox="0 0 118 40" fill="none" xmlns="http://www.w3.org/2000/svg">
<path d="M0 9.13581C0 4.33571 3.89125 0.444458 8.69136 0.444458H30.4197C35.2199 0.444458 39.1111 4.33571 39.1111 9.13581V30.8642C39.1111 35.6643 35.2198 39.5556 30.4197 39.5556H8.69136C3.89125 39.5556 0 35.6643 0 30.8642V9.13581Z" fill="#00C471"/>
<path d="M24.022 12.9545V17.2509C21.5506 17.2509 19.5556 19.1699 19.5556 21.5472H15.201C15.1392 21.5472 15.0891 21.4986 15.0899 21.4391C15.1502 16.7485 19.1316 12.9545 24.022 12.9545Z" fill="#FAFAFA"/>
<path d="M32.9548 21.5472H28.4884C28.4884 19.1699 26.4934 17.2509 24.022 17.2509V12.9545C28.9499 12.9545 32.9548 16.8069 32.9548 21.5472Z" fill="#FAFAFA"/>
<path d="M24.022 30.1399V25.8436C26.4934 25.8436 28.4884 23.9246 28.4884 21.5472H32.9548C32.9548 26.3019 28.9499 30.1399 24.022 30.1399Z" fill="#FAFAFA"/>
<path d="M15.0892 30.1399V25.8436C17.5606 25.8436 19.5556 23.9246 19.5556 21.5472H23.9102C23.9719 21.5472 24.022 21.5959 24.0213 21.6554C23.9611 26.3599 19.9797 30.1399 15.0892 30.1399Z" fill="#FAFAFA"/>
<path d="M6.1564 21.5472H10.6228C10.6228 23.9246 12.6178 25.8436 15.0892 25.8436V30.1399C10.1613 30.1399 6.1564 26.3019 6.1564 21.5472Z" fill="#FAFAFA"/>
<path d="M15.0892 12.9545V17.2509C12.6178 17.2509 10.6228 19.1699 10.6228 21.5472H6.1564C6.1564 16.8069 10.1613 12.9545 15.0892 12.9545Z" fill="#FAFAFA"/>
<path d="M19.3879 7.07062C19.3879 7.01117 19.4379 6.96298 19.4997 6.96298H23.8977C23.9595 6.96298 24.0095 7.01117 24.0095 7.07062V11.9859C24.0095 12.0453 23.9594 12.0934 23.8977 12.0941C22.3424 12.1099 20.8693 12.4556 19.5503 13.0618C19.4753 13.0963 19.3879 13.0441 19.3879 12.9642V7.07062Z" fill="#FAFAFA"/>
<path d="M18.5183 13.6854C18.5492 13.6653 18.5679 13.6317 18.5679 13.5958V13.0622C18.5679 13.0027 18.5178 12.9545 18.4561 12.9545H14.9898V17.252H15.1239C15.194 17.252 15.258 17.2141 15.2906 17.1543C16.0522 15.7541 17.1658 14.5662 18.5183 13.6854Z" fill="#FAFAFA"/>
<path d="M20.5556 29.4091C20.5247 29.4292 20.506 29.4628 20.506 29.4987V30.0323C20.506 30.0917 20.5561 30.1399 20.6178 30.1399H24.0841V25.8431H23.95C23.8799 25.8431 23.8158 25.8811 23.7833 25.9409C23.0217 27.341 21.9081 28.5283 20.5556 29.4091Z" fill="#FAFAFA"/>
<path d="M62.8816 8.75798H66.3371V31.1548H62.8816V28.8511C61.5804 30.6642 59.714 31.5707 57.2824 31.5707C55.0853 31.5707 53.2083 30.7602 51.6512 29.1391C50.0941 27.4966 49.3155 25.5023 49.3155 23.1559C49.3155 20.7883 50.0941 18.7939 51.6512 17.1728C53.2083 15.5517 55.0853 14.7411 57.2824 14.7411C59.714 14.7411 61.5804 15.637 62.8816 17.4287V8.75798ZM54.2108 26.8354C55.1707 27.7953 56.3758 28.2752 57.8263 28.2752C59.2767 28.2752 60.4819 27.7953 61.4418 26.8354C62.4016 25.8542 62.8816 24.6277 62.8816 23.1559C62.8816 21.6841 62.4016 20.4683 61.4418 19.5084C60.4819 18.5273 59.2767 18.0367 57.8263 18.0367C56.3758 18.0367 55.1707 18.5273 54.2108 19.5084C53.2509 20.4683 52.771 21.6841 52.771 23.1559C52.771 24.6277 53.2509 25.8542 54.2108 26.8354Z" fill="#202020"/>
<path d="M73.6283 12.1175C73.2017 12.5441 72.6897 12.7574 72.0925 12.7574C71.4953 12.7574 70.9727 12.5441 70.5247 12.1175C70.0981 11.6696 69.8848 11.147 69.8848 10.5497C69.8848 9.95248 70.0981 9.44055 70.5247 9.01395C70.9513 8.56601 71.4739 8.34204 72.0925 8.34204C72.7111 8.34204 73.2337 8.56601 73.6603 9.01395C74.0869 9.44055 74.3002 9.95248 74.3002 10.5497C74.3002 11.147 74.0762 11.6696 73.6283 12.1175ZM70.3647 31.1548V15.1571H73.8203V31.1548H70.3647Z" fill="#202020"/>
<path d="M86.7592 18.4846H82.7917V26.1635C82.7917 26.8247 82.941 27.3047 83.2397 27.6033C83.5383 27.8806 83.9756 28.0406 84.5515 28.0832C85.1487 28.1046 85.8846 28.0939 86.7592 28.0512V31.1548C84.1142 31.4747 82.2158 31.2508 81.064 30.4829C79.9121 29.6937 79.3362 28.2539 79.3362 26.1635V18.4846H76.3926V15.1571H79.3362V11.7016L82.7917 10.6777V15.1571H86.7592V18.4846Z" fill="#202020"/>
<path d="M98.07 18.4846H94.1026V26.1635C94.1026 26.8247 94.2519 27.3047 94.5505 27.6033C94.8492 27.8806 95.2864 28.0406 95.8624 28.0832C96.4596 28.1046 97.1955 28.0939 98.07 28.0512V31.1548C95.4251 31.4747 93.5267 31.2508 92.3749 30.4829C91.223 29.6937 90.6471 28.2539 90.6471 26.1635V18.4846H87.7035V15.1571H90.6471V11.7016L94.1026 10.6777V15.1571H98.07V18.4846Z" fill="#202020"/>
<path d="M108.099 31.5707C105.753 31.5707 103.758 30.7602 102.116 29.1391C100.473 27.518 99.6521 25.5236 99.6521 23.1559C99.6521 20.7883 100.473 18.7939 102.116 17.1728C103.758 15.5517 105.753 14.7411 108.099 14.7411C110.467 14.7411 112.461 15.5517 114.082 17.1728C115.724 18.7939 116.546 20.7883 116.546 23.1559C116.546 25.5236 115.724 27.518 114.082 29.1391C112.461 30.7602 110.467 31.5707 108.099 31.5707ZM104.547 26.7714C105.507 27.7313 106.691 28.2112 108.099 28.2112C109.507 28.2112 110.69 27.7313 111.65 26.7714C112.61 25.8116 113.09 24.6064 113.09 23.1559C113.09 21.7055 112.61 20.5003 111.65 19.5404C110.69 18.5806 109.507 18.1006 108.099 18.1006C106.691 18.1006 105.507 18.5806 104.547 19.5404C103.588 20.5003 103.108 21.7055 103.108 23.1559C103.108 24.6064 103.588 25.8116 104.547 26.7714Z" fill="#202020"/>
</svg>
