<svg width="209" height="72" viewBox="0 0 209 72"  xmlns="http://www.w3.org/2000/svg">
<path d="M42.4714 1.28926H53.1622V70.7107H42.4714V63.5702C38.4458 69.1901 32.6714 72 25.1483 72C18.351 72 12.5437 69.4876 7.7262 64.4628C2.90873 59.3719 0.5 53.1901 0.5 45.9174C0.5 38.5785 2.90873 32.3967 7.7262 27.3719C12.5437 22.3471 18.351 19.8347 25.1483 19.8347C32.6714 19.8347 38.4458 22.6116 42.4714 28.1653V1.28926ZM15.6453 57.3223C18.615 60.2975 22.3436 61.7851 26.8311 61.7851C31.3186 61.7851 35.0472 60.2975 38.0169 57.3223C40.9865 54.281 42.4714 50.4793 42.4714 45.9174C42.4714 41.3554 40.9865 37.5868 38.0169 34.6116C35.0472 31.5702 31.3186 30.0496 26.8311 30.0496C22.3436 30.0496 18.615 31.5702 15.6453 34.6116C12.6757 37.5868 11.1908 41.3554 11.1908 45.9174C11.1908 50.4793 12.6757 54.281 15.6453 57.3223Z" fill="#FAFAFA"/>
<path d="M75.7201 11.7025C74.4002 13.0248 72.8164 13.6859 70.9686 13.6859C69.1208 13.6859 67.504 13.0248 66.1181 11.7025C64.7983 10.314 64.1384 8.69421 64.1384 6.84297C64.1384 4.99174 64.7983 3.40496 66.1181 2.08265C67.438 0.694216 69.0548 0 70.9686 0C72.8824 0 74.4992 0.694216 75.8191 2.08265C77.1389 3.40496 77.7989 4.99174 77.7989 6.84297C77.7989 8.69421 77.1059 10.314 75.7201 11.7025ZM65.6232 70.7107V21.124H76.314V70.7107H65.6232Z" fill="#FAFAFA"/>
<path d="M116.345 31.438H104.07V55.2397C104.07 57.2893 104.532 58.7769 105.456 59.7025C106.38 60.562 107.733 61.0578 109.515 61.1901C111.363 61.2562 113.639 61.2231 116.345 61.0909V70.7107C108.162 71.7025 102.289 71.0083 98.725 68.6281C95.1614 66.1818 93.3796 61.719 93.3796 55.2397V31.438H84.2726V21.124H93.3796V10.4132L104.07 7.23967V21.124H116.345V31.438Z" fill="#FAFAFA"/>
<path d="M151.339 31.438H139.065V55.2397C139.065 57.2893 139.527 58.7769 140.45 59.7025C141.374 60.562 142.727 61.0578 144.509 61.1901C146.357 61.2562 148.634 61.2231 151.339 61.0909V70.7107C143.156 71.7025 137.283 71.0083 133.719 68.6281C130.156 66.1818 128.374 61.719 128.374 55.2397V31.438H119.267V21.124H128.374V10.4132L139.065 7.23967V21.124H151.339V31.438Z" fill="#FAFAFA"/>
<path d="M182.367 72C175.108 72 168.937 69.4876 163.856 64.4628C158.774 59.438 156.234 53.2562 156.234 45.9174C156.234 38.5785 158.774 32.3967 163.856 27.3719C168.937 22.3471 175.108 19.8347 182.367 19.8347C189.692 19.8347 195.862 22.3471 200.878 27.3719C205.959 32.3967 208.5 38.5785 208.5 45.9174C208.5 53.2562 205.959 59.438 200.878 64.4628C195.862 69.4876 189.692 72 182.367 72ZM171.379 57.124C174.349 60.0992 178.011 61.5868 182.367 61.5868C186.722 61.5868 190.385 60.0992 193.355 57.124C196.324 54.1488 197.809 50.4132 197.809 45.9174C197.809 41.4215 196.324 37.686 193.355 34.7107C190.385 31.7355 186.722 30.2479 182.367 30.2479C178.011 30.2479 174.349 31.7355 171.379 34.7107C168.409 37.686 166.925 41.4215 166.925 45.9174C166.925 50.4132 168.409 54.1488 171.379 57.124Z" />
</svg>
