<svg width="25" height="20" viewBox="0 0 25 20" xmlns="http://www.w3.org/2000/svg">
<path d="M2.14963 8.56285C8.5933 5.75609 12.8891 3.90552 15.037 3.01149C21.1767 0.458543 22.451 0.0151523 23.2832 0.000130884C23.4662 -0.00280433 23.8737 0.0424322 24.1396 0.257394C24.3606 0.438686 24.4228 0.683864 24.4538 0.856006C24.4815 1.02797 24.5194 1.41991 24.4884 1.72587C24.1569 5.2205 22.7169 13.7009 21.9848 17.6151C21.6775 19.2712 21.0662 19.8265 20.4757 19.8807C19.1912 19.9988 18.2174 19.0326 16.9742 18.218C15.0301 16.9427 13.9319 16.1492 12.043 14.905C9.86062 13.4671 11.2764 12.6766 12.5196 11.3851C12.8442 11.0471 18.5005 5.90354 18.6076 5.43702C18.6214 5.37866 18.6352 5.16111 18.504 5.04646C18.3762 4.93147 18.1863 4.97083 18.0482 5.00191C17.8513 5.04611 14.7469 7.10008 8.72452 11.1635C7.84396 11.7691 7.04627 12.0644 6.328 12.0489C5.54067 12.0319 4.02127 11.6027 2.89207 11.236C1.51079 10.786 0.409224 10.5481 0.505913 9.7839C0.554258 9.38609 1.10332 8.97896 2.14963 8.56285Z"/>
</svg>
