<svg width="34" height="34" viewBox="0 0 34 34" xmlns="http://www.w3.org/2000/svg">
<path fill-rule="evenodd" clip-rule="evenodd" d="M17.86 0.616788C17.6278 0.396639 17.32 0.273926 17 0.273926C16.68 0.273926 16.3722 0.396639 16.14 0.616788C12.6021 3.97659 7.89022 5.819 3.01168 5.75012C2.7459 5.74667 2.48594 5.82802 2.26955 5.98237C2.05316 6.13672 1.89161 6.35603 1.80834 6.60845C1.10497 8.75206 0.747708 10.9941 0.750011 13.2501C0.750011 23.1535 7.52334 31.4718 16.6883 33.8301C16.8928 33.8828 17.1072 33.8828 17.3117 33.8301C26.4767 31.4718 33.25 23.1535 33.25 13.2501C33.25 10.9335 32.8783 8.70012 32.1917 6.60845C32.1087 6.35572 31.9473 6.13605 31.7309 5.98138C31.5144 5.82671 31.2543 5.74511 30.9883 5.74845L30.75 5.75012C25.7567 5.75012 21.2217 3.80012 17.86 0.616788ZM23.0167 13.9768C23.1167 13.8435 23.189 13.6916 23.2295 13.53C23.2699 13.3684 23.2777 13.2004 23.2523 13.0357C23.2268 12.8711 23.1688 12.7132 23.0814 12.5713C22.9941 12.4294 22.8793 12.3064 22.7438 12.2095C22.6082 12.1127 22.4547 12.0439 22.2922 12.0072C22.1297 11.9705 21.9615 11.9666 21.7975 11.9959C21.6335 12.0251 21.477 12.0869 21.3371 12.1775C21.1973 12.2681 21.077 12.3857 20.9833 12.5235L15.59 20.0735L12.8833 17.3668C12.6464 17.146 12.333 17.0258 12.0091 17.0315C11.6853 17.0372 11.3763 17.1684 11.1473 17.3974C10.9183 17.6264 10.7871 17.9354 10.7814 18.2593C10.7757 18.5831 10.8959 18.8965 11.1167 19.1335L14.8667 22.8835C14.995 23.0117 15.1497 23.1104 15.32 23.1729C15.4903 23.2353 15.6722 23.2599 15.8529 23.245C16.0337 23.2301 16.2091 23.176 16.3669 23.0865C16.5247 22.997 16.6611 22.8743 16.7667 22.7268L23.0167 13.9768Z" />
</svg>
