<svg width="24" height="24" viewBox="0 0 24 24" xmlns="http://www.w3.org/2000/svg">
<g clip-path="url(#clip0_68_39164)">
<path d="M7.55113 21.7497C16.6055 21.7497 21.5593 14.2465 21.5593 7.74162C21.5593 7.53068 21.5546 7.31505 21.5452 7.10412C22.5089 6.40722 23.3405 5.54401 24.001 4.55505C23.1035 4.95436 22.1506 5.21514 21.1749 5.32849C22.2023 4.71266 22.9715 3.74523 23.34 2.60552C22.3735 3.17831 21.3166 3.58237 20.2144 3.80037C19.4718 3.01132 18.49 2.48887 17.4207 2.31381C16.3514 2.13874 15.2542 2.32081 14.2987 2.83185C13.3433 3.3429 12.5828 4.15446 12.1348 5.14107C11.6869 6.12767 11.5764 7.23437 11.8205 8.29005C9.86347 8.19185 7.94891 7.68346 6.20096 6.79785C4.453 5.91225 2.91067 4.66919 1.67395 3.14927C1.04538 4.233 0.853033 5.5154 1.13601 6.73585C1.41898 7.95629 2.15604 9.0232 3.19738 9.71974C2.4156 9.69492 1.65095 9.48444 0.966602 9.10568V9.16662C0.965901 10.3039 1.35907 11.4063 2.07929 12.2865C2.7995 13.1667 3.8023 13.7703 4.91723 13.9947C4.19303 14.1929 3.43296 14.2218 2.69582 14.0791C3.01043 15.0572 3.62255 15.9126 4.44675 16.5261C5.27095 17.1395 6.2661 17.4804 7.29332 17.501C5.5494 18.8709 3.39515 19.6139 1.17754 19.6104C0.784264 19.6098 0.391376 19.5857 0.000976562 19.5382C2.25383 20.9835 4.87451 21.7511 7.55113 21.7497Z" />
</g>
<defs>
<clipPath id="clip0_68_39164">
<rect width="24" height="24" fill="white" transform="translate(0.000976562)"/>
</clipPath>
</defs>
</svg>
